<?xml version="1.0" encoding="UTF-8" standalone="no"?>
<!-- Created with Inkscape (http://www.inkscape.org/) -->

<svg
   version="1.1"
   id="svg132"
   width="800"
   height="366.81104"
   viewBox="0 0 800 366.81105"
   sodipodi:docname="Logo Rip Curl - 2000s.svg"
   inkscape:version="1.2 (dc2aeda, 2022-05-15)"
   xmlns:inkscape="http://www.inkscape.org/namespaces/inkscape"
   xmlns:sodipodi="http://sodipodi.sourceforge.net/DTD/sodipodi-0.dtd"
   xmlns="http://www.w3.org/2000/svg"
   xmlns:svg="http://www.w3.org/2000/svg">
  <defs
     id="defs136">
    <clipPath
       clipPathUnits="userSpaceOnUse"
       id="clipPath1453">
      <path
         d="M -39.676274,-59.4852 H 728.32372 V 964.51482 H -39.676274 Z"
         id="path1455"
         style="stroke-width:0.999998" />
    </clipPath>
    <clipPath
       clipPathUnits="userSpaceOnUse"
       id="clipPath1459">
      <path
         d="M -33.665474,-109.323 H 734.33452 V 914.67702 H -33.665474 Z"
         id="path1461"
         style="stroke-width:0.999998" />
    </clipPath>
    <clipPath
       clipPathUnits="userSpaceOnUse"
       id="clipPath1465">
      <path
         d="M -31.080674,-95.1205 H 736.91932 V 928.87952 H -31.080674 Z"
         id="path1467"
         style="stroke-width:0.999998" />
    </clipPath>
    <clipPath
       clipPathUnits="userSpaceOnUse"
       id="clipPath1471">
      <path
         d="M -30.912574,-49.494 H 737.08742 V 974.50602 H -30.912574 Z"
         id="path1473"
         style="stroke-width:0.999998" />
    </clipPath>
    <clipPath
       clipPathUnits="userSpaceOnUse"
       id="clipPath1477">
      <path
         d="M -31.062974,-117.3785 H 736.93702 V 906.62152 H -31.062974 Z"
         id="path1479"
         style="stroke-width:0.999998" />
    </clipPath>
    <clipPath
       clipPathUnits="userSpaceOnUse"
       id="clipPath1483">
      <path
         d="M -33.701274,-78.3432 H 734.29872 V 945.65682 H -33.701274 Z"
         id="path1485"
         style="stroke-width:0.999998" />
    </clipPath>
    <clipPath
       clipPathUnits="userSpaceOnUse"
       id="clipPath1489">
      <path
         d="M -33.506374,-41.9463 H 734.49362 V 982.05372 H -33.506374 Z"
         id="path1491"
         style="stroke-width:0.999998" />
    </clipPath>
    <clipPath
       clipPathUnits="userSpaceOnUse"
       id="clipPath1495">
      <path
         d="M -33.514974,-71.421 H 734.48502 V 952.57902 H -33.514974 Z"
         id="path1497"
         style="stroke-width:0.999998" />
    </clipPath>
  </defs>
  <sodipodi:namedview
     id="namedview134"
     pagecolor="#ffffff"
     bordercolor="#666666"
     borderopacity="1.0"
     inkscape:showpageshadow="2"
     inkscape:pageopacity="0.0"
     inkscape:pagecheckerboard="0"
     inkscape:deskcolor="#d1d1d1"
     showgrid="false"
     inkscape:zoom="0.34570315"
     inkscape:cx="287.81919"
     inkscape:cy="-352.90393"
     inkscape:window-width="1440"
     inkscape:window-height="900"
     inkscape:window-x="0"
     inkscape:window-y="0"
     inkscape:window-maximized="0"
     inkscape:current-layer="g138" />
  <g
     id="g138"
     inkscape:groupmode="layer"
     inkscape:label="Logo Rip Curl - 2000s"
     transform="matrix(1.3333333,0,0,-1.3333333,31.754667,168.55129)">
    <g
       id="g1517"
       transform="matrix(6.4247947,0,0,6.4247947,129.19691,-685.76717)">
      <path
         d="m 0,0 c -0.045,0.603 -0.113,2.552 -0.113,4.266 0,5.353 1.359,11.809 3.539,16.859 2.489,5.734 5.657,8.903 8.925,8.903 3.594,0 3.417,-5.875 2.891,-8.455 C 14.227,16.455 9.949,12.045 8.666,10.812 L 7.836,10 8.34,10.059 c 4.079,0.49 7.809,2.235 10.773,5.077 3.798,3.636 6.418,9.035 7.796,16.061 1.912,9.683 0.788,18.292 -0.227,23.201 -0.091,0.44 -0.435,1.759 -0.539,2.054 -0.091,0.217 -0.154,0.199 -0.127,-0.009 0.018,-0.218 0.09,-0.735 0.09,-0.748 0.44,-3.201 1.134,-12.58 -1.124,-21.184 -1.658,-6.278 -3.444,-9.656 -6.064,-13.273 -0.009,-0.018 -0.018,-0.018 -0.018,0 0.467,1.668 1.051,4.588 1.051,7.765 0,5.195 -1.618,10.739 -6.168,10.739 -3.028,0 -5.729,-2.117 -8.784,-6.881 C 0.974,26.587 -0.444,19.035 -0.92,13.808 -1.505,7.398 -0.68,2.031 -0.159,-0.091 -0.073,-0.435 0.027,-0.34 0,0"
         style="fill:#cb2d14;fill-opacity:1;fill-rule:nonzero;stroke:none"
         id="path170"
         transform="rotate(90,-26.70235,71.76365)"
         clip-path="url(#clipPath1453)" />
      <g
         id="g1506">
        <path
           d="M 0,0 C -0.603,0.113 -1.382,1.818 -1.382,3.463 V 4.438 L 0.965,3.45 C 1.187,1.972 1.215,0.612 0.594,0.104 0.494,0.036 0.326,-0.063 0,0 m 1.151,-4.388 c 0.902,0.508 1.451,2.86 1.451,4.678 v 7.149 l -8.594,3.545 V 6.401 L -1.831,4.633 -5.992,1.129 v -4.973 c 0,0 1.736,1.867 3.486,3.286 0.312,-0.897 1.291,-3.517 2.248,-3.903 0.294,-0.127 0.553,-0.154 0.779,-0.127 0.259,0.028 0.472,0.109 0.63,0.2"
           style="fill:#000000;fill-opacity:1;fill-rule:nonzero;stroke:none"
           id="path174"
           transform="rotate(90,-51.34235,38.51035)"
           clip-path="url(#clipPath1477)" />
        <path
           d="M 0,0 C -0.603,0.127 -1.382,1.827 -1.382,3.463 V 4.452 L 1.097,3.4 C 1.097,2.171 1.215,0.617 0.585,0.118 0.485,0.036 0.326,-0.059 0,0 m 1.142,-3.432 c 0.911,0.513 1.451,1.904 1.451,3.727 v 7.144 l -8.576,3.549 V 6.401 L -1.895,4.669 -5.983,0.834 v -4.347 c 0,0 1.904,2.23 3.468,3.912 0.312,-0.902 1.309,-3.513 2.257,-3.899 0.285,-0.127 0.557,-0.154 0.779,-0.127 0.259,0.019 0.472,0.109 0.621,0.195"
           style="fill:#000000;fill-opacity:1;fill-rule:nonzero;stroke:none"
           id="path178"
           transform="rotate(90,-17.3249,72.3774)"
           clip-path="url(#clipPath1471)" />
        <path
           d="M 0,0 -8.593,3.627 V -0.961 L 0,-4.52 Z"
           style="fill:#000000;fill-opacity:1;fill-rule:nonzero;stroke:none"
           id="path182"
           transform="rotate(90,-48.61585,43.83935)"
           clip-path="url(#clipPath1459)" />
        <path
           d="M 0,0 C -0.644,0.141 -1.4,1.691 -1.4,3.445 V 4.497 C -1.265,4.443 0.104,3.858 1.106,3.427 1.265,1.922 1.224,0.58 0.576,0.068 0.408,-0.05 0.113,-0.036 0,0 m 1.133,-3.441 c 0.902,0.508 1.45,1.904 1.45,3.722 V 7.416 L -6.01,11.238 V 6.392 c 0,0 2.919,-1.206 3.195,-1.319 V 2.194 c 0,-2.602 1.115,-5.118 2.543,-5.712 0.29,-0.122 0.548,-0.149 0.775,-0.131 0.258,0.036 0.471,0.118 0.63,0.208"
           style="fill:#000000;fill-opacity:1;fill-rule:nonzero;stroke:none"
           id="path186"
           transform="rotate(90,-40.2222,49.6482)"
           clip-path="url(#clipPath1465)" />
        <path
           d="m 0,0 c 0,4.293 -2.044,9.615 -4.319,10.553 -0.744,0.299 -1.478,0.263 -2.144,-0.109 -1.432,-0.802 -2.434,-3.585 -2.434,-6.727 0,-2.062 0.798,-4.574 1.4,-6.169 l 1.868,-0.286 c -0.621,0.807 -1.727,3.753 -1.727,5.889 0,1.337 0.363,2.275 1.033,2.661 0.576,0.321 1.233,0.163 1.677,-0.019 1.469,-0.612 3.245,-2.733 3.245,-5.53 0,-2.054 -0.616,-3.25 -0.725,-3.459 -0.104,-0.222 -0.417,-0.657 -0.417,-0.657 l 1.709,-0.798 c 0,0 0.834,1.26 0.834,4.651"
           style="fill:#000000;fill-opacity:1;fill-rule:nonzero;stroke:none"
           id="path190"
           transform="rotate(90,-33.14385,59.34715)"
           clip-path="url(#clipPath1483)" />
        <path
           d="m 0,0 -8.108,3.268 c -0.055,0.023 -0.105,0.028 -0.159,0.023 -0.009,0.005 -0.009,0 -0.009,0 C -8.385,3.287 -8.598,3.21 -8.598,3.042 v -9.429 l 1.437,-0.585 v 5.295 C -6.336,-2.017 0,-4.647 0,-4.647 Z"
           style="fill:#000000;fill-opacity:1;fill-rule:nonzero;stroke:none"
           id="path194"
           transform="rotate(90,-14.84795,77.44815)"
           clip-path="url(#clipPath1489)" />
        <path
           d="M 0,0 -4.913,2.149 C -5.398,2.344 -5.824,2.398 -6.178,2.353 -6.513,2.326 -6.789,2.221 -7.002,2.099 -8.027,1.514 -8.711,-0.63 -8.711,-2.951 c 0,-3.559 1.604,-6.782 3.472,-7.557 l 5.248,-2.176 v 2.122 l -4.922,2.044 c -1.002,0.413 -1.849,2.421 -1.849,4.388 0,1.347 0.38,1.755 0.603,1.877 0.253,0.145 0.725,0.027 0.92,-0.045 0,0 5.239,-2.19 5.239,-2.149 z"
           style="fill:#000000;fill-opacity:1;fill-rule:nonzero;stroke:none"
           id="path198"
           transform="rotate(90,-29.5896,62.7151)"
           clip-path="url(#clipPath1495)" />
      </g>
    </g>
  </g>
</svg>
